<?xml version="1.0" standalone="no"?>
<!DOCTYPE svg PUBLIC "-//W3C//DTD SVG 20010904//EN"
 "http://www.w3.org/TR/2001/REC-SVG-20010904/DTD/svg10.dtd">
<svg version="1.0" xmlns="http://www.w3.org/2000/svg"
 width="360.000000pt" height="360.000000pt" viewBox="0 0 360.000000 360.000000"
 preserveAspectRatio="xMidYMid meet">
<metadata>
Created by potrace 1.14, written by Peter Selinger 2001-2017
</metadata>
<g transform="translate(0.000000,360.000000) scale(0.100000,-0.100000)"
fill="#000000" stroke="none">
<path d="M400 1800 l0 -1800 1400 0 1400 0 0 1800 0 1800 -1400 0 -1400 0 0
-1800z m795 1684 c40 -16 45 -51 45 -333 0 -286 -3 -310 -47 -330 -16 -7 -117
-11 -294 -11 -282 0 -317 5 -333 45 -3 9 -6 145 -6 301 l0 285 25 24 24 25
285 0 c156 0 292 -3 301 -6z m900 0 c40 -16 45 -51 45 -333 0 -286 -3 -310
-47 -330 -16 -7 -117 -11 -294 -11 -282 0 -317 5 -333 45 -3 9 -6 145 -6 301
l0 285 25 24 24 25 285 0 c156 0 292 -3 301 -6z m900 0 c40 -16 45 -51 45
-333 0 -286 -3 -310 -47 -330 -16 -7 -117 -11 -294 -11 -282 0 -317 5 -333 45
-3 9 -6 145 -6 301 l0 285 25 24 24 25 285 0 c156 0 292 -3 301 -6z m-1800
-910 c40 -16 45 -51 45 -333 0 -286 -3 -310 -47 -330 -16 -7 -117 -11 -294
-11 -282 0 -317 5 -333 45 -3 9 -6 145 -6 301 l0 285 25 24 24 25 285 0 c156
0 292 -3 301 -6z m900 0 c40 -16 45 -51 45 -333 0 -286 -3 -310 -47 -330 -16
-7 -117 -11 -294 -11 -282 0 -317 5 -333 45 -3 9 -6 145 -6 301 l0 285 25 24
24 25 285 0 c156 0 292 -3 301 -6z m900 0 c40 -16 45 -51 45 -333 0 -286 -3
-310 -47 -330 -16 -7 -117 -11 -294 -11 -282 0 -317 5 -333 45 -3 9 -6 145 -6
301 l0 285 25 24 24 25 285 0 c156 0 292 -3 301 -6z m-1800 -900 c40 -16 45
-51 45 -333 0 -286 -3 -310 -47 -330 -16 -7 -117 -11 -294 -11 -282 0 -317 5
-333 45 -3 9 -6 145 -6 301 l0 285 25 24 24 25 285 0 c156 0 292 -3 301 -6z
m900 0 c40 -16 45 -51 45 -333 0 -286 -3 -310 -47 -330 -16 -7 -117 -11 -294
-11 -282 0 -317 5 -333 45 -3 9 -6 145 -6 301 l0 285 25 24 24 25 285 0 c156
0 292 -3 301 -6z m900 0 c40 -16 45 -51 45 -333 0 -286 -3 -310 -47 -330 -16
-7 -117 -11 -294 -11 -282 0 -317 5 -333 45 -3 9 -6 145 -6 301 l0 285 25 24
24 25 285 0 c156 0 292 -3 301 -6z m-1800 -900 c40 -16 45 -51 45 -333 0 -286
-3 -310 -47 -330 -16 -7 -117 -11 -294 -11 -282 0 -317 5 -333 45 -3 9 -6 145
-6 301 l0 285 25 24 24 25 285 0 c156 0 292 -3 301 -6z m900 0 c40 -16 45 -51
45 -333 0 -286 -3 -310 -47 -330 -16 -7 -117 -11 -294 -11 -282 0 -317 5 -333
45 -3 9 -6 145 -6 301 l0 285 25 24 24 25 285 0 c156 0 292 -3 301 -6z m900 0
c40 -16 45 -51 45 -333 0 -286 -3 -310 -47 -330 -16 -7 -117 -11 -294 -11
-282 0 -317 5 -333 45 -3 9 -6 145 -6 301 l0 285 25 24 24 25 285 0 c156 0
292 -3 301 -6z"/>
<path d="M887 3259 c-3 -11 -15 -23 -26 -26 -12 -3 -21 -11 -21 -19 0 -10 6
-11 25 -4 l25 10 0 -90 c0 -89 0 -90 -25 -90 -14 0 -25 -4 -25 -10 0 -6 27
-10 60 -10 33 0 60 4 60 10 0 6 -11 10 -25 10 l-25 0 0 120 c0 110 -10 151
-23 99z"/>
<path d="M1748 3268 c-24 -19 -33 -58 -14 -58 9 0 16 8 16 20 0 39 93 39 105
0 9 -28 -10 -58 -70 -115 -30 -27 -56 -60 -60 -72 -6 -23 -5 -23 74 -23 47 0
81 4 81 10 0 6 -28 10 -65 10 -36 0 -65 4 -65 9 0 5 23 28 50 51 79 66 99 121
60 160 -23 23 -87 27 -112 8z"/>
<path d="M2646 3264 c-17 -16 -22 -44 -8 -44 4 0 13 9 20 20 14 24 64 27 81 6
7 -8 11 -27 9 -43 -2 -22 -9 -29 -32 -33 -17 -3 -30 -9 -30 -15 0 -5 13 -12
30 -15 27 -5 29 -8 29 -50 l0 -45 -42 -3 c-34 -3 -42 0 -48 17 -8 26 -25 28
-25 3 0 -29 21 -42 70 -42 25 0 51 5 58 12 15 15 16 104 1 114 -8 4 -8 9 0 17
6 6 11 30 11 54 0 32 -5 45 -19 53 -29 15 -87 12 -105 -6z"/>
<path d="M882 2282 c-34 -50 -62 -94 -62 -97 0 -3 25 -5 55 -5 l55 0 0 -36 c0
-44 23 -42 28 2 2 16 9 33 15 37 9 6 9 10 0 14 -9 3 -13 28 -14 71 -1 117 -7
118 -77 14z m48 -27 l0 -55 -40 0 -40 0 36 55 c20 30 38 55 40 55 2 0 4 -25 4
-55z"/>
<path d="M1737 2363 c-4 -3 -7 -35 -7 -70 0 -63 11 -78 37 -52 6 6 26 9 44 7
40 -4 59 -40 43 -85 -8 -24 -16 -28 -52 -31 -37 -3 -44 0 -49 17 -7 26 -23 28
-23 3 0 -30 21 -42 71 -42 38 0 51 5 63 22 21 29 20 87 0 117 -15 20 -23 23
-65 19 l-49 -5 0 38 0 39 60 0 c47 0 60 3 60 15 0 12 -14 15 -63 15 -35 0 -67
-3 -70 -7z"/>
<path d="M2647 2352 c-13 -15 -17 -39 -17 -115 0 -113 8 -127 74 -127 55 0 71
18 71 82 0 63 -21 82 -82 75 -43 -4 -43 -4 -43 27 0 18 5 37 12 44 22 22 88
12 88 -14 0 -8 7 -14 15 -14 21 0 19 16 -5 40 -26 26 -90 27 -113 2z m92 -116
c7 -8 11 -34 9 -58 -3 -41 -5 -43 -36 -46 -18 -2 -40 2 -48 9 -17 14 -19 80
-2 97 16 16 63 15 77 -2z"/>
<path d="M827 1464 c-15 -15 8 -24 64 -24 l59 0 -31 -62 c-46 -91 -71 -168
-55 -168 7 0 20 25 30 56 10 30 33 85 52 121 18 36 31 69 28 74 -6 10 -137 12
-147 3z"/>
<path d="M1747 1452 c-18 -20 -22 -68 -8 -91 5 -8 3 -25 -6 -42 -15 -30 -11
-72 9 -96 6 -7 32 -13 59 -13 38 0 51 4 63 22 20 29 20 82 1 98 -11 9 -13 16
-5 24 16 16 12 83 -6 100 -22 22 -87 21 -107 -2z m92 -16 c7 -8 11 -27 9 -43
-3 -25 -7 -28 -45 -31 -38 -3 -43 0 -49 22 -9 36 11 66 45 66 16 0 34 -6 40
-14z m15 -128 c7 -11 7 -26 0 -45 -8 -25 -14 -28 -54 -28 -44 0 -45 1 -48 33
-5 54 3 64 49 60 26 -2 46 -9 53 -20z"/>
<path d="M2647 1452 c-22 -24 -23 -114 -2 -132 8 -7 34 -11 60 -8 l46 3 -3
-40 c-3 -40 -4 -40 -46 -43 -37 -3 -44 0 -49 17 -7 26 -23 28 -23 3 0 -29 21
-42 71 -42 67 0 74 13 74 132 0 87 -2 101 -19 114 -28 20 -89 18 -109 -4z m92
-16 c7 -8 11 -34 9 -58 -3 -42 -4 -43 -42 -46 -24 -2 -42 2 -47 10 -13 20 -11
82 3 96 16 16 63 15 77 -2z"/>
<path d="M812 513 l27 -4 -19 -32 c-52 -84 10 -181 103 -163 69 13 104 98 64
156 -16 23 -32 14 -16 -10 5 -8 9 -31 9 -51 0 -68 -77 -104 -131 -60 -19 15
-24 29 -24 64 0 24 7 52 15 62 14 17 15 16 21 -11 l6 -29 7 27 c13 45 2 58
-46 57 -29 -2 -34 -3 -16 -6z"/>
<path d="M1772 563 c-45 -18 -62 -153 -26 -213 39 -69 113 -42 130 46 19 104
-37 194 -104 167z m65 -40 c24 -36 24 -130 0 -167 -39 -58 -87 -13 -87 82 0
98 48 145 87 85z"/>
<path d="M1782 438 c7 -19 38 -22 38 -4 0 10 -9 16 -21 16 -12 0 -19 -5 -17
-12z"/>
<path d="M2740 460 l0 -50 -36 0 -36 0 18 28 18 27 -35 -26 c-19 -15 -34 -32
-34 -39 0 -7 15 -24 34 -39 l35 -26 -18 28 -18 27 46 0 46 0 0 60 c0 33 -4 60
-10 60 -5 0 -10 -22 -10 -50z"/>
</g>
</svg>
