<?xml version="1.0" standalone="no"?>
<!DOCTYPE svg PUBLIC "-//W3C//DTD SVG 20010904//EN"
 "http://www.w3.org/TR/2001/REC-SVG-20010904/DTD/svg10.dtd">
<svg version="1.0" xmlns="http://www.w3.org/2000/svg"
 width="513.000000pt" height="513.000000pt" viewBox="0 0 513.000000 513.000000"
 preserveAspectRatio="xMidYMid meet">
<metadata>
Created by potrace 1.14, written by Peter Selinger 2001-2017
</metadata>
<g transform="translate(0.000000,513.000000) scale(0.100000,-0.100000)"
fill="#000000" stroke="none">
<path d="M1055 5122 c-182 -17 -377 -88 -541 -198 -95 -62 -233 -197 -290
-281 -21 -32 -42 -60 -45 -63 -17 -13 -110 -224 -128 -290 -44 -158 -44 -157
-46 -1370 -1 -641 0 -1168 2 -1173 3 -4 311 299 685 673 644 643 685 683 752
715 148 70 287 68 431 -8 49 -26 159 -132 612 -584 304 -304 557 -553 561
-553 4 0 147 140 317 310 171 171 333 326 360 344 98 65 237 91 350 66 28 -6
79 -25 115 -42 58 -29 112 -79 495 -461 l430 -430 3 179 c1 98 1 634 0 1189
l-3 1010 -27 95 c-114 406 -396 701 -783 823 -44 14 -96 28 -115 31 -19 3 -46
9 -60 12 -24 6 -3012 12 -3075 6z m2833 -1201 c203 -104 250 -374 93 -543
-220 -239 -619 -68 -599 256 11 175 134 304 310 324 76 9 122 1 196 -37z"/>
<path d="M815 1895 l-810 -813 3 -43 c8 -108 72 -315 130 -419 149 -268 398
-475 677 -559 170 -52 125 -51 1759 -51 1258 1 1533 3 1593 15 294 57 550 216
724 449 120 160 208 383 225 568 l6 73 -128 126 c-71 70 -156 153 -190 185
-33 33 -179 174 -324 314 -265 257 -400 388 -478 463 l-42 41 -333 -330 c-272
-271 -342 -335 -388 -357 -137 -65 -279 -65 -418 0 -48 22 -137 106 -621 589
-311 310 -568 563 -570 563 -3 -1 -369 -367 -815 -814z"/>
</g>
</svg>
