<?xml version="1.0" standalone="no"?>
<!DOCTYPE svg PUBLIC "-//W3C//DTD SVG 20010904//EN"
 "http://www.w3.org/TR/2001/REC-SVG-20010904/DTD/svg10.dtd">
<svg version="1.0" xmlns="http://www.w3.org/2000/svg"
 width="512.000000pt" height="512.000000pt" viewBox="0 0 512.000000 512.000000"
 preserveAspectRatio="xMidYMid meet">
<metadata>
Created by potrace 1.14, written by Peter Selinger 2001-2017
</metadata>
<g transform="translate(0.000000,512.000000) scale(0.100000,-0.100000)"
fill="#000000" stroke="none">
<path d="M0 2560 l0 -2560 2560 0 2560 0 0 2560 0 2560 -2560 0 -2560 0 0
-2560z m2263 1763 c-7 -2 -21 -2 -30 0 -10 3 -4 5 12 5 17 0 24 -2 18 -5z
m-80 -10 c-7 -2 -21 -2 -30 0 -10 3 -4 5 12 5 17 0 24 -2 18 -5z m-83 -13
c-14 -4 -36 -8 -50 -8 -22 0 -22 1 5 8 17 4 39 8 50 8 16 0 15 -2 -5 -8z m438
3 c-15 -2 -42 -2 -60 0 -18 2 -6 4 27 4 33 0 48 -2 33 -4z m-175 -10 c-13 -2
-35 -2 -50 0 -16 2 -5 4 22 4 28 0 40 -2 28 -4z m375 0 c-15 -2 -42 -2 -60 0
-18 2 -6 4 27 4 33 0 48 -2 33 -4z m-748 -15 c-245 -71 -437 -157 -568 -255
-142 -107 -271 -223 -246 -223 3 0 -11 -19 -33 -43 -101 -110 -182 -257 -260
-477 -62 -174 -77 -177 -22 -5 15 49 26 91 23 94 -16 16 -52 -56 -100 -200
-54 -165 -66 -157 -19 12 32 111 52 158 132 302 173 313 381 512 687 657 168
80 362 148 421 148 11 0 4 -5 -15 -10z m285 7 c-23 -8 -83 -10 -79 -3 3 4 24
8 47 7 23 0 38 -2 32 -4z m558 -2 c-7 -2 -19 -2 -25 0 -7 3 -2 5 12 5 14 0 19
-2 13 -5z m70 -10 c-7 -2 -21 -2 -30 0 -10 3 -4 5 12 5 17 0 24 -2 18 -5z m54
-9 c-3 -3 -12 -4 -19 -1 -8 3 -5 6 6 6 11 1 17 -2 13 -5z m50 -10 c-3 -3 -12
-4 -19 -1 -8 3 -5 6 6 6 11 1 17 -2 13 -5z m-1402 -174 c-3 -5 -12 -10 -18
-10 -7 0 -6 4 3 10 19 12 23 12 15 0z m-110 -60 c-3 -5 -12 -10 -18 -10 -7 0
-6 4 3 10 19 12 23 12 15 0z m-80 -49 c-6 -4 -46 -34 -90 -66 -44 -32 -92 -69
-107 -83 -15 -14 -30 -23 -33 -20 -3 3 7 15 22 27 94 73 249 179 208 142z
m-151 -154 c-3 -8 -19 -24 -37 -37 l-32 -23 34 37 c38 40 43 43 35 23z m-104
-152 c-98 -129 -207 -331 -252 -465 -17 -53 -26 -70 -22 -45 19 132 93 295
193 430 38 52 120 145 128 145 1 0 -20 -29 -47 -65z m1747 -70 c267 -54 478
-168 656 -353 89 -93 86 -106 -3 -17 -54 54 -73 67 -79 56 -7 -11 -15 -10 -42
10 -19 13 -35 27 -37 31 -2 4 -10 8 -17 8 -7 0 -15 4 -17 9 -5 13 -48 24 -48
12 0 -6 5 -11 10 -11 6 0 10 -9 10 -19 0 -11 5 -21 11 -23 6 -2 13 -17 15 -33
1 -16 8 -31 13 -33 6 -2 11 -12 11 -22 0 -10 6 -25 13 -32 23 -26 57 -78 67
-103 5 -14 14 -25 20 -25 5 0 10 -5 10 -11 0 -5 12 -36 26 -67 15 -31 27 -61
29 -67 3 -14 15 -46 28 -75 6 -14 11 -67 11 -118 1 -81 4 -96 20 -108 30 -22
40 -17 65 26 18 33 25 39 37 29 11 -9 17 -9 28 0 23 19 35 -15 42 -121 5 -75
4 -97 -8 -109 -11 -10 -15 -44 -17 -129 -2 -138 -27 -408 -40 -441 -5 -13 -21
-50 -36 -82 -39 -86 -24 -80 25 8 23 42 44 74 47 71 7 -6 -24 -73 -84 -184
-46 -85 -71 -108 -34 -31 23 46 29 77 8 43 -32 -56 -107 -154 -116 -154 -4 0
-32 -24 -63 -53 -57 -53 -128 -101 -113 -77 5 8 -3 5 -17 -6 -14 -10 -24 -22
-21 -26 2 -5 -4 -8 -14 -8 -10 0 -38 -14 -63 -30 -82 -56 -203 -104 -335 -134
-199 -46 -512 -47 -688 -2 -339 87 -637 337 -771 650 -64 150 -88 261 -89 411
0 130 4 156 49 299 17 54 40 79 29 34 -14 -68 -35 -179 -35 -192 0 -8 5 -27
11 -43 10 -27 11 -26 45 57 20 47 57 130 83 186 49 102 70 155 55 141 -4 -4
-18 3 -31 15 -20 19 -23 31 -23 94 0 56 -3 73 -16 78 -8 3 -12 11 -8 17 3 6
-6 3 -22 -7 -28 -18 -54 -42 -84 -80 -83 -105 -87 -101 -28 23 87 186 262 393
411 486 194 123 399 205 602 241 44 8 149 15 234 15 127 1 175 -3 278 -24z
m608 -355 c14 -26 14 -29 0 -24 -14 6 -35 34 -35 48 0 17 22 2 35 -24z m776
-609 c35 -43 54 -97 74 -216 19 -108 22 -379 5 -480 -19 -112 -78 -341 -110
-424 -57 -148 -166 -277 -264 -313 -46 -17 -65 -6 -23 13 15 7 27 25 34 52 6
23 24 78 41 122 66 170 106 285 142 404 l37 124 5 -66 c3 -45 10 -73 21 -84 9
-9 19 -15 22 -12 2 3 11 86 19 185 16 207 13 390 -8 454 -35 110 -88 248 -117
302 -5 10 -9 20 -9 23 0 15 105 -53 131 -84z m-487 8 l6 -44 -14 40 c-8 22
-15 49 -15 60 -1 37 18 -8 23 -56z m-2957 -16 c-3 -10 -5 -4 -5 12 0 17 2 24
5 18 2 -7 2 -21 0 -30z m0 -70 c-3 -10 -5 -2 -5 17 0 19 2 27 5 18 2 -10 2
-26 0 -35z m-183 -608 c9 -66 26 -175 37 -242 33 -210 19 -194 -21 23 -53 297
-72 559 -52 760 6 64 8 31 13 -171 4 -148 13 -299 23 -370z m232 300 c18 -107
49 -340 73 -560 11 -99 23 -196 26 -215 2 -19 -5 2 -18 48 -12 45 -27 86 -34
90 -6 4 -18 54 -27 112 -8 58 -25 173 -38 255 -12 88 -23 210 -24 295 -3 141
-2 144 13 100 8 -25 21 -81 29 -125z m248 -162 c3 -60 8 -128 11 -153 6 -55 1
-44 -14 30 -13 71 -22 242 -12 235 5 -2 11 -53 15 -112z m-28 -78 c24 -86 53
-389 35 -369 -12 14 -29 108 -41 234 -6 63 -15 145 -20 182 -6 37 -9 82 -9
100 1 21 5 9 11 -32 5 -36 16 -87 24 -115z m-603 -255 l7 -55 -15 60 c-8 33
-17 110 -19 170 l-5 110 13 -115 c7 -63 16 -140 19 -170z m3334 258 c-3 -8 -6
-5 -6 6 -1 11 2 17 5 13 3 -3 4 -12 1 -19z m-3018 -123 c-1 -11 -7 7 -15 40
-7 33 -13 69 -13 80 1 11 7 -7 15 -40 7 -33 13 -69 13 -80z m345 -63 c5 -37 4
-52 -4 -47 -5 3 -10 29 -10 57 0 64 5 60 14 -10z m-7 -234 c-3 -7 -5 -2 -5 12
0 14 2 19 5 13 2 -7 2 -19 0 -25z m-440 -70 c-3 -8 -6 -5 -6 6 -1 11 2 17 5
13 3 -3 4 -12 1 -19z"/>
<path d="M2526 3035 c-8 -8 -27 -15 -42 -15 -16 0 -46 -6 -69 -14 -22 -8 -57
-17 -77 -21 -21 -3 -38 -10 -38 -15 0 -5 -8 -8 -17 -8 -17 2 -131 -30 -248
-68 -70 -23 -175 -74 -175 -85 0 -5 -8 -9 -19 -9 -10 0 -24 -7 -31 -15 -7 -8
-21 -15 -31 -15 -9 0 -24 -6 -31 -12 -20 -19 -50 -38 -70 -44 -16 -6 -88 -111
-88 -128 0 -4 -19 -34 -41 -68 -139 -204 -155 -433 -49 -679 51 -118 107 -197
219 -310 143 -144 290 -231 483 -285 79 -22 120 -27 267 -31 191 -6 275 3 409
43 131 39 212 81 387 200 37 26 116 112 154 168 36 53 69 108 77 126 48 118
60 169 78 338 12 115 11 190 -5 382 -1 8 -5 20 -9 25 -4 6 -11 26 -15 45 -20
95 -139 258 -231 316 -16 10 -47 32 -69 50 -43 33 -113 69 -158 80 -15 3 -30
10 -33 15 -3 5 -18 9 -33 9 -15 0 -32 5 -38 11 -7 7 -77 13 -194 15 -100 2
-184 6 -187 9 -11 11 -61 4 -76 -10z"/>
</g>
</svg>
